<svg xmlns="http://www.w3.org/2000/svg" viewBox="0 0 170 60"><defs><style>.cls-1{fill:none;}.cls-2{fill:#212121;}.cls-2,.cls-3{fill-rule:evenodd;}.cls-3{fill:#e72949;}</style></defs><title>资源 7</title><g id="图层_2" data-name="图层 2"><g id="_" data-name="ͼ"><rect class="cls-1" width="170" height="60"/><path class="cls-2" d="M126.09,20.94H115.94V23.2h18.56c0,2.36-3.31,9.52-6.4,11.65a20.17,20.17,0,0,1-3.87-4.63C121,24.89,123,24.7,118.94,24.7c.88,3.4,5.26,10,7,11.52-2.57,1.82-6.39,2.27-10,2.27l.08,2.37c9-.41,10.78-2.69,12-2.77.22,0,3.81,1.72,4.93,2a23.52,23.52,0,0,0,6.9.73l.09-2.35c-3.56.06-7.36-.21-9.52-2.13,1-1.72,1.92-1.43,4.12-6,1.09-2.3,1.85-4.87,3-7.11l2.38-.06V20.94H129.11L129,18.85h-2.22C126.73,20.4,127.12,20.42,126.09,20.94Z"/><path class="cls-2" d="M66.35,38.64c-1.64,0-1.81.21-2-.93a.37.37,0,0,1,.21-.42c1.07-.48,3.3-.26,4.29-.26L81.1,37c2.05.09,1.41-.2,1.71.66a.41.41,0,0,1,0,.29c-.39.9.4.29-1,.65h-.09l-15.36,0Zm2.1-4c-4.22,0-3.71.43-4.21-.72.76-.81-.67-.13.71-.65a.35.35,0,0,1,.14,0l13.51-.09c4.72,0,3.7-.33,4.25.77-.39.94.18.34-.73.64l-.12,0-13.55.06Zm-4.83-3.6c-1.45.46-1.59.71-1.67,2.54-.05,1.3,0,2.89,0,4.21.06,3.78,1.68,3.14,5.1,3.12,19.28-.09,18.43,2.07,18.2-7-.09-3.49-2.18-3.07-5.24-3.06C77.11,30.86,65.37,30.5,63.62,31.06Z"/><path class="cls-2" d="M97.5,24.09c3.1-1,.6-1.87,5.58-1.82,2.26,0,5.11-.26,7.26.22.39,6.59-5.87,4.45-12.11,4.8v2.08l11.11,0-.07,1.9-12.13.05v2.23l12.14,0-.06,4.66a11,11,0,0,1-4.16.37v2.29c6.42,0,6.53-.09,6.53-6.64.37-.93-.24-.59,1.36-.69V31.36c-1.79-.1-.92.24-1.34-1-.69-2,.71-.45-1.11-1.75,1.28-1.62,4-7.06,1-8.35s-9.15.92-10-1l-.1-.39c-2.67,0-1.37-.11-3.16,2.08C97.16,22.22,97.39,21.89,97.5,24.09Z"/><path class="cls-2" d="M157.25,26.24c-.61,1.43-3.5,2.06-4.95,3.05l-.11,2.08,5-2c.41,12-2.23,11.55,10.36,11.58l0-2.41c-4.86,0-7.81,1.13-8-2.15-.05-.79,0-2,0-2.8V28.42c3.38-2.29,7.91-2.45,7.92-7.72-4.29,0-1.25,1.2-4.17,3.11a9.38,9.38,0,0,1-3.73,1.61l0-6.45h-2.13Z"/><path class="cls-2" d="M62.25,23.35c1.44-.86,4-2.67,4.44-.26-.94.7-2.89.43-4.44.26Zm-.38,2.45h3.85c-.65,1.42-2.14,1.76-4.14,2.31l0,1.81a8.33,8.33,0,0,0,3.52-.74c2-.82,1.51-1.3,3-2,1.47,1.12,3.35,2.89,6.15,2.72V28.12c-2.17-.7-2.91-.75-4-2.27L74,25.8l.08-2.3c-3.68,0-4.34.56-4.92-.76.54-1.25,1.24-.69,4.94-.69V19.82c-1.39,0-6.76.24-7.77-.26s.89-.73-2.08-.73l-2.37,2.32C61.28,22.26,61.74,24.47,61.87,25.8Z"/><path class="cls-2" d="M93.72,22H88.09l0,2.23h5.48c.44,2.76.18,8.4.17,11.46H88.1l0,2.41h5.6v2.74l2.34.09V18.87l-2.39,0Z"/><path class="cls-2" d="M78,21.73l5.13,0a21.66,21.66,0,0,1,0,5.8,11.84,11.84,0,0,1-5-.1c-.48-1.37-.26-3.93-.18-5.68Zm-.82-2.3c-1.64.58-1.5,1.69-1.49,3.65,0,6-.63,6.92,3.64,6.93,1.34,0,3.94.22,5-.22,1.79-.78,1.78-6.28,1.24-8.72C84.85,18,77.26,19.39,77.13,19.43Z"/><path class="cls-2" d="M141.88,29c1.29-.53,3.25-.72,4.21-1.31L146.18,41l2.42.12.12-17.16c.35-1.74,1.07-2.6,1.37-4.86l-2.54.49c-.75,1.54-.72,2.76-1.87,4.5C144,26.66,141.82,24.7,141.88,29Z"/><polygon class="cls-2" points="98.64 25.79 99.94 25.92 106.94 25.9 108.3 25.87 108.3 24.07 98.64 24.05 98.64 25.79"/><polygon class="cls-2" points="98.51 37.76 104.12 37.76 104.12 35.39 98.56 35.39 98.51 37.76"/><path class="cls-3" d="M3.35,44.5h4c1.06,0,8.78-10.12,8.78-11.63V27.11c0-1.5-7.72-11.83-8.78-11.83h-4c-1.69,0-3.07,2-3.07,4.37V40.13C.28,42.54,1.66,44.5,3.35,44.5Z"/><path class="cls-3" d="M47.21,13.08H24.11A6.1,6.1,0,0,0,18,19.16V40.62a6.1,6.1,0,0,0,6.08,6.08h23.1a6.1,6.1,0,0,0,6.08-6.08V19.16A6.1,6.1,0,0,0,47.21,13.08Zm-2,28.38H32.34A5.08,5.08,0,0,1,28,39l-.16-.26a5.18,5.18,0,0,1,.77-6.39l7.44-6c.64-.64-.68-1.63-1.57-1.6l-2.15.13c-1.77.06-3.36-.2-4.34-1.68l-2.2-3.31a1,1,0,0,1,.79-1.57H39.34a5.11,5.11,0,0,1,4.3,2.36l.08.13a5.18,5.18,0,0,1-.65,6.39L37,32.37c-.59.61.56,2.21,1.39,2.25l2.51.2c1.59.09,3.2,1.64,4.1,3l1,2.1A1,1,0,0,1,45.2,41.46Z"/></g></g></svg>
